/* XPM */
static char *bag[]={
"16 16 41 1",
". c None",
"# c #000000",
"d c #020202",
"i c #1c1c1c",
"E c #539d53",
"L c #549d54",
"v c #5da65d",
"g c #6e6e6e",
"B c #6eab6e",
"l c #6f6f6f",
"K c #6fac6f",
"A c #73b273",
"o c #78b578",
"y c #868686",
"I c #8ab78a",
"H c #8ab88a",
"w c #8dba8d",
"C c #909090",
"c c #929292",
"q c #939393",
"s c #9bc89b",
"J c #acacac",
"m c #afafaf",
"M c #b2ccb2",
"G c #bad3ba",
"f c #bcbcbc",
"F c #bfbfbf",
"b c #c1c1c1",
"z c #c4c4c4",
"r c #c7e0c7",
"p c #c9c9c9",
"k c #cfcfcf",
"u c #d4e7d4",
"n c #dedede",
"x c #e5e5e5",
"e c #e6e6e6",
"t c #e7e7e7",
"j c #ececec",
"h c #ededed",
"D c #f4f4f4",
"a c #ffffff",
"................",
"........##...##.",
".......#ab#..#a#",
"........#acd#e#.",
".........#fgh#..",
"........ijklm#..",
".......#naonp#..",
".......#aoaooq#.",
"......#prosato#.",
"......#uvravwxy#",
".....#zAroooBxC#",
".....#oaoaooDEF#",
".....#jooaraGHI#",
".....#JjKKBLMH#.",
"......#########.",
"................"};
