/* XPM */
static char *cache[]={
"16 16 3 1",
". c None",
"# c #404000",
"a c #ffff00",
"................",
".......##..#....",
"........####....",
".........aa.....",
"........#a##....",
".......##a###...",
"......###aa##...",
"......##a##a##..",
"......##a#####..",
"......########..",
"......########..",
".......######...",
"........####....",
"................",
"................",
"................"};
