/* XPM */
static char *retcache[]={
"16 16 5 1",
". c None",
"# c #000000",
"b c #00ff00",
"a c #404000",
"c c #ffff00",
"...#............",
"..#####aa..a....",
".#bbbb#.aaaa....",
"#bbbbb#..cc.....",
".#bbbb#.acaa....",
"..#####aacaaa...",
"...#..aaaccaa...",
"......aacaacaa..",
"......aacaaaaa..",
"......aaaaaaaa..",
"......aaaaaaaa..",
".......aaaaaa...",
"........aaaa....",
"................",
"................",
"................"};
