/* XPM */
static char *cache_emptyret[]={
"16 16 5 1",
"c c None",
". c None",
"# c #000000",
"b c #00ff00",
"a c #404000",
"...#............",
"..#####aa..a....",
".#bbbb#.aaaa....",
"#bbbbb#..aa.....",
".#bbbb#.acca....",
"..#####acccca...",
"...#..accccca...",
"......acccccca..",
"......acccccca..",
"......acccccca..",
"......acccccca..",
".......acccca...",
"........aaaa....",
"................",
"................",
"................"};
